<?xml version="1.0" encoding="utf-8"?>
<!-- Generator: Adobe Illustrator 18.1.0, SVG Export Plug-In . SVG Version: 6.00 Build 0)  -->
<svg version="1.1" xmlns="http://www.w3.org/2000/svg" xmlns:xlink="http://www.w3.org/1999/xlink" x="0px" y="0px"
	 viewBox="0 0 285.8 112.6" enable-background="new 0 0 285.8 112.6" xml:space="preserve">
<g id="blk">
</g>
<g id="Layer_1">
	<g>
		<path fill-rule="evenodd" clip-rule="evenodd" fill="#FFFFFF" d="M22.8,9.6c10-0.1,19.8,4.4,19.8,15.5c0,10.6-10.7,14.8-19.8,14.9
			V9.6L22.8,9.6z M14.4,57.2C14.1,67.1,14,69.9,2.6,71.4v1.4H36v-1.4c-13.1-1.8-13.2-3.7-13.2-14.2V41.9c6.7,1.1,9.5-0.8,13.9,6.8
			c2.6,4.4,9.3,12.4,16.9,18.6c7,5.7,11.6,8.2,19.9,11.9c9.2,4.1,17.3,5.7,21.3,6.5c50.5,9.7,81.9-7.2,102.5-41.8
			c0,0-18.3,32.1-49.7,38.8c-21.7,4.7-51.2-0.8-64.4-6.1c-25-10.1-30.2-19.2-42-36.8L40.6,39c6.9-3,11.8-7.6,11.8-15.6
			c0-4.6-1.9-16.3-25.9-15.5L3.2,8.7V10c10.7,1,11.2,3.1,11.2,17.7V57.2L14.4,57.2z"/>
		<path fill="#FFFFFF" d="M4.1,94.9h1.8c0.9,0,2.5,0,2.5,2.1c0,2.1-1.7,2.2-2.3,2.2H4.1V94.9z M4.1,100.3h2.3c1.5,0,2,1,2,2.2
			c0,0.8,0.1,2.2,0.4,3h1.5v-0.3c-0.3,0-0.4-0.5-0.5-0.7c-0.1-0.9-0.2-1.7-0.3-2.6c-0.2-1.6-0.6-2.1-2.1-2.2v0
			c1.4-0.2,2.2-1.2,2.3-2.6c0.1-2.7-1.5-3.4-3.9-3.4h-3v11.8h1.3V100.3z"/>
		<path fill="#FFFFFF" d="M13,105.5V93.7h5.9v1.2h-4.6v3.9h4.3v1.2h-4.3v4.3h4.6v1.2H13z"/>
		<path fill="#FFFFFF" d="M26.3,100.9h-3.1l1.6-6.3h0L26.3,100.9z M20.6,105.5h1.4l0.9-3.4h3.7l0.9,3.4H29l-3.3-11.8H24L20.6,105.5z
			"/>
		<path fill="#FFFFFF" d="M31.2,105.5V93.7h1.3v10.6h4.8v1.2H31.2z"/>
		<path fill="#FFFFFF" d="M44.4,105.5V93.7h5.9v1.2h-4.6v3.9H50v1.2h-4.3v4.3h4.6v1.2H44.4z"/>
		<path fill="#FFFFFF" d="M58.2,96.8c0.1-1.2-0.6-2.1-1.9-2.1c-1.9,0-2.1,1.2-2.1,2.1c0,0.8,0.4,1.3,1.1,1.6
			c0.6,0.2,1.2,0.5,1.9,0.7c2.2,0.8,2.6,1.6,2.6,3.2c0,2.2-1.4,3.5-3.7,3.5c-1.2,0-2.5-0.3-3.2-1.9c-0.2-0.6-0.2-1.5-0.2-2.2H54
			c-0.1,1.7,0.3,2.8,2.2,2.8c1.3,0,2.2-0.7,2.2-2.1c0-1.8-0.7-1.8-1.9-2.3c-0.6-0.3-1.7-0.6-2.3-0.9c-1.1-0.6-1.4-1.5-1.4-2.7
			c0-1.9,1.4-3.2,3.3-3.2c2.2,0,3.5,1.1,3.3,3.3H58.2z"/>
		<path fill="#FFFFFF" d="M61.6,93.7H69v1.2h-3v10.6h-1.3V94.9h-3V93.7z"/>
		<path fill="#FFFFFF" d="M75.9,100.9h-3.1l1.6-6.3h0L75.9,100.9z M70.2,105.5h1.4l0.9-3.4h3.7l0.9,3.4h1.4l-3.3-11.8h-1.7
			L70.2,105.5z"/>
		<path fill="#FFFFFF" d="M79.8,93.7h7.4v1.2h-3v10.6h-1.3V94.9h-3V93.7z"/>
		<path fill="#FFFFFF" d="M89.3,105.5V93.7h5.9v1.2h-4.6v3.9h4.3v1.2h-4.3v4.3h4.6v1.2H89.3z"/>
		<path fill="#FFFFFF" d="M104.1,104.3v-4.4h1.2c1.3,0,2.8-0.2,2.8,2.2c0,1.5-0.5,2.2-1.9,2.2H104.1z M104.1,94.9h1.1
			c2,0,2.5,0.4,2.5,1.9c0,1.8-0.9,2.1-2.5,2h-1.2V94.9z M105.9,105.5c2.3,0.1,3.5-1.1,3.5-3.5c0-1.4-0.5-2.6-2-2.8v0
			c1.4-0.5,1.8-1.3,1.8-2.6c-0.1-1.8-0.9-3-3-2.9h-3.4v11.8H105.9z"/>
		<path fill="#FFFFFF" d="M118.3,99.4c0,3.4-0.4,5.2-2.5,5.2c-2.2,0-2.5-1.8-2.5-5.2c0-2.6,0.5-4.7,2.5-4.7
			C117.8,94.7,118.3,96.8,118.3,99.4z M111.9,99.3c0,3.3,0.4,6.4,3.9,6.4c3.4,0,3.9-3.2,3.9-6.4c0-2.7-0.4-5.9-3.8-5.9
			C112.3,93.5,111.9,96.6,111.9,99.3z"/>
		<path fill="#FFFFFF" d="M127.3,100.9h-3.1l1.6-6.3h0L127.3,100.9z M121.5,105.5h1.4l0.9-3.4h3.7l0.9,3.4h1.4l-3.3-11.8h-1.7
			L121.5,105.5z"/>
		<path fill="#FFFFFF" d="M133.5,94.9h1.8c0.9,0,2.5,0,2.5,2.1c0,2.1-1.7,2.2-2.3,2.2h-2.1V94.9z M133.5,100.3h2.3c1.5,0,2,1,2,2.2
			c0,0.8,0.1,2.2,0.4,3h1.5v-0.3c-0.3,0-0.4-0.5-0.5-0.7c-0.1-0.9-0.2-1.7-0.3-2.6c-0.2-1.6-0.6-2.1-2.1-2.2v0
			c1.4-0.2,2.2-1.2,2.3-2.6c0.1-2.7-1.5-3.4-4-3.4h-3v11.8h1.3V100.3z"/>
		<path fill="#FFFFFF" d="M143.8,94.9h2.1c2.1,0,2.5,1.8,2.6,4.5c0.1,3.5-0.7,4.9-2.6,4.9h-2.1V94.9z M146,105.5
			c3.2,0,3.7-3,3.8-5.9c0.1-2.9-0.4-5.9-4.1-5.9h-3.2v11.8H146z"/>
		<path fill="#FFFFFF" d="M163.6,99.4c0,3.4-0.4,5.2-2.5,5.2c-2.2,0-2.5-1.8-2.5-5.2c0-2.6,0.5-4.7,2.5-4.7
			C163.1,94.7,163.6,96.8,163.6,99.4z M157.2,99.3c0,3.3,0.4,6.4,3.9,6.4c3.4,0,3.9-3.2,3.9-6.4c0-2.7-0.4-5.9-3.8-5.9
			C157.6,93.5,157.2,96.6,157.2,99.3z"/>
		<path fill="#FFFFFF" d="M167.8,105.5V93.7h5.5v1.2h-4.2v3.9h3.9v1.2h-3.9v5.6H167.8z"/>
		<path fill="#FFFFFF" d="M186.2,93.7h1.3v11.8h-2.1l-3.3-9.4c-0.2-0.5-0.3-1.1-0.4-1.8h0c0,0.6,0,1.2,0,1.8v9.4h-1.3V93.7h2.1
			l3.3,9.6c0.1,0.4,0.3,0.7,0.4,1.3h0c0-0.4,0-0.9,0-1.3V93.7z"/>
		<path fill="#FFFFFF" d="M190.6,105.5V93.7h5.9v1.2H192v3.9h4.3v1.2H192v4.3h4.6v1.2H190.6z"/>
		<path fill="#FFFFFF" d="M202.5,105.5h-1.6l-2.5-11.8h1.4l1.5,8.1c0.1,0.8,0.3,1.6,0.3,2.7h0c0.1-0.9,0.2-1.8,0.4-2.6l1.7-8.2h1.6
			l1.6,8.1c0.1,0.8,0.2,1.6,0.3,2.7h0c0.1-0.9,0.2-1.8,0.4-2.6l1.7-8.2h1.4l-2.8,11.8h-1.6l-1.6-8c-0.2-0.8-0.3-1.6-0.3-2.8h0
			c-0.1,1.1-0.2,2-0.4,2.8L202.5,105.5z"/>
		<path fill="#FFFFFF" d="M221,99.6l2.8-5.9h1.4l-3.6,7.2v4.6h-1.3v-4.6l-3.5-7.2h1.4L221,99.6z"/>
		<path fill="#FFFFFF" d="M233.5,99.4c0,3.4-0.4,5.2-2.5,5.2c-2.2,0-2.5-1.8-2.5-5.2c0-2.6,0.5-4.7,2.5-4.7
			C233,94.7,233.5,96.8,233.5,99.4z M227.1,99.3c0,3.3,0.4,6.4,3.9,6.4c3.4,0,3.9-3.2,3.9-6.4c0-2.7-0.4-5.9-3.8-5.9
			C227.5,93.5,227.1,96.6,227.1,99.3z"/>
		<path fill="#FFFFFF" d="M239.2,94.9h1.8c0.9,0,2.5,0,2.5,2.1c0,2.1-1.7,2.2-2.3,2.2h-2.1V94.9z M239.2,100.3h2.3c1.5,0,2,1,2,2.2
			c0,0.8,0.1,2.2,0.4,3h1.5v-0.3c-0.3,0-0.4-0.5-0.5-0.7c-0.1-0.9-0.2-1.7-0.3-2.6c-0.2-1.6-0.6-2.1-2.1-2.2v0
			c1.4-0.2,2.2-1.2,2.3-2.6c0.1-2.7-1.5-3.4-4-3.4h-3v11.8h1.3V100.3z"/>
		<path fill="#FFFFFF" d="M248.1,105.5V93.7h1.3v6h0l4.3-6h1.6l-3.7,4.9l3.9,6.8h-1.6l-3.2-5.7l-1.2,1.6v4.1H248.1z"/>
		<path fill="#FFFFFF" d="M57.5,72.9h46c1.7-5,2.7-10.1,2.8-16.4h-1.2c-2.1,10.4-7.2,14.4-17.6,14.4c-13.6,0-12.4-6.8-12.4-11.7
			V45.6h8.6c6.2,0,10.8,0.1,11.8,7.4h1.2V34.6h-1.2c-0.9,7.1-5.6,7.6-11.8,7.6h-8.6V18.6h8c8.4,0,16,0.1,16.6,10.8h1.2l1-12.7H57.5
			v1.2c9.9,1.3,10,3.8,10.3,12.3v29.1c-0.2,8.5-0.3,11-10.3,12.3V72.9L57.5,72.9z"/>
		<path fill-rule="evenodd" clip-rule="evenodd" fill="#FFFFFF" d="M125.2,18.3c8.4,0,17.2,3.1,17.2,13c0,9.6-9.5,11.7-17.2,11.7
			V18.3L125.2,18.3z M125.2,44.8l3.2-0.2c12.3-0.6,17,9.4,17,14.5c0,7.3-5.1,12-12.2,12c-8.4,0-8-6.1-8-12.6V44.8L125.2,44.8z
			 M136,43c6.5-1.7,14.6-4.8,14.6-12.9c0-13.1-16.4-14-25.6-13.6l-16.8,0.7v1.2c9.4,1.2,9.5,3.7,9.8,12.2v28.7
			c-0.2,8.5-0.3,11-10.3,12.3v1.2l22.7,0.2c4.1,0.1,23.9,0.4,23.9-14.9c0-9.8-10.8-13.2-18.4-15V43L136,43z"/>
		<path fill="#FFFFFF" d="M168.6,16.6H155v1.2c10.5,2.3,11.8,5.5,11.8,13.8v12.4c0,18.8,0.4,26.4-10.7,27.5v1.2h24.7v-1.2
			c-12-2.4-11.5-6.6-11.5-27.1V29.3c14,15.1,28.7,29.5,41.9,45.2l1.1-0.2c-0.4-18-0.8-38,0.3-47.1c0.7-5.4,1.7-8.5,7.4-9.3v-1.2
			h-22.6v1.2c9.3,1.7,11.5,4,11.6,11.8l0.4,30.2L168.6,16.6L168.6,16.6z"/>
		<path fill="#FFFFFF" d="M246.9,16.6v1.2c7.2,0.9,7.9,4.1,2.7,13.6l-7.2,13.6l-8.3-17.9c-2.6-5.8-3.6-8.5,3.2-9.4v-1.2h-22.8v1.2
			c8.4,1,10.6,6.9,13.7,13.8l8.6,18.8v6.6c-0.2,9.5-0.3,12.9-10.9,14.6v1.2H255v-1.2c-10.6-1.7-10.8-5-10.9-14.6v-9.3l9.8-19.4
			c3.5-6,7-9.9,14.2-10.5v-1.2H246.9L246.9,16.6z"/>
		<path fill="#FFFFFF" d="M273.9,17.9c0-2.4,1.8-4.2,4.1-4.2c2.3,0,4.1,1.8,4.1,4.2c0,2.4-1.8,4.2-4.1,4.2
			C275.7,22.1,273.9,20.3,273.9,17.9z M278,22.9c2.7,0,5.1-2.1,5.1-5c0-2.9-2.3-5-5.1-5c-2.8,0-5.1,2.1-5.1,5
			C272.9,20.8,275.2,22.9,278,22.9z M276.9,18.3h1l1.5,2.5h1l-1.6-2.6c0.8-0.1,1.5-0.6,1.5-1.6c0-1.1-0.7-1.6-2-1.6H276v5.8h0.9
			V18.3z M276.9,17.5v-1.8h1.2c0.6,0,1.3,0.1,1.3,0.9c0,0.9-0.7,0.9-1.4,0.9H276.9z"/>
	</g>
</g>
</svg>
